<svg xmlns="http://www.w3.org/2000/svg" width="24" height="24" viewBox="0 0 24 24"><g><g><path fill="#dcc7d3" d="M20.273 20.07a11.737 11.737 0 0 1-8.327 3.444A11.737 11.737 0 0 1 3.62 20.07 11.703 11.703 0 0 1 .17 11.74c0-3.145 1.226-6.103 3.45-8.328 4.59-4.592 12.063-4.592 16.653 0 4.591 4.592 4.591 12.065 0 16.657zm-1.29-15.367C15.104.823 8.79.82 4.91 4.703a9.894 9.894 0 0 0-2.914 7.038 9.89 9.89 0 0 0 2.914 7.039c3.88 3.88 10.194 3.88 14.075 0 3.879-3.88 3.879-10.196 0-14.077zm-3.105 10.85a.912.912 0 0 1-1.29.001l-2.585-2.58-2.584 2.58a.913.913 0 0 1-1.29-1.29l2.582-2.58-2.582-2.58a.912.912 0 1 1 1.29-1.29l2.584 2.58 2.584-2.58a.912.912 0 1 1 1.29 1.29l-2.582 2.58 2.582 2.58a.912.912 0 0 1 0 1.29z"/></g></g></svg>