<svg xmlns="http://www.w3.org/2000/svg" width="46" height="46" viewBox="0 0 46 46"><g><g><path fill="#b48baf" d="M39.24 38.766c-8.86 8.569-22.904 8.569-31.763 0-9.081-8.784-9.333-23.276-.562-32.371 8.86-8.568 22.904-8.568 31.763 0 9.081 8.784 9.333 23.277.562 32.371zm5.174-16.185A21.383 21.383 0 0 0 38.17 7.465C29.843-.883 16.333-.889 7.997 7.451c-8.336 8.34-8.342 21.87-.013 30.218 8.328 8.348 21.837 8.354 30.173.014l.008.007a21.383 21.383 0 0 0 6.249-15.11zm-8.497 10.042l-1.166 1.168a7.705 7.705 0 0 1-5.433 2.29c-.595 0-1.19-.072-1.768-.215a21.798 21.798 0 0 1-6.34-2.823 28.711 28.711 0 0 1-4.9-3.96 28.936 28.936 0 0 1-3.657-4.457 22.908 22.908 0 0 1-2.789-5.662 7.64 7.64 0 0 1 1.89-7.784L13.11 9.82a2.55 2.55 0 0 1 3.529 0l4.282 4.29c.97.973.97 2.55 0 3.525l-2.515 2.518a.535.535 0 0 0-.053.694 27.907 27.907 0 0 0 2.85 3.335 27.747 27.747 0 0 0 3.757 3.16.54.54 0 0 0 .693-.061l2.454-2.458.004-.004a2.489 2.489 0 0 1 3.524.004l4.282 4.274c.971.974.971 2.551 0 3.525zm-1.082-2.41l-4.29-4.305a.966.966 0 0 0-1.372 0l-2.43 2.472c-.709.705-1.818.801-2.637.23a29.233 29.233 0 0 1-3.962-3.335 29.478 29.478 0 0 1-3.01-3.518 2.055 2.055 0 0 1 .213-2.671l2.515-2.519.003-.003a.97.97 0 0 0-.003-1.37l-4.283-4.289a.967.967 0 0 0-1.372 0l-1.356 1.358a6.111 6.111 0 0 0-1.524 6.235 21.381 21.381 0 0 0 2.606 5.281 27.422 27.422 0 0 0 3.467 4.212 27.192 27.192 0 0 0 4.641 3.747 20.24 20.24 0 0 0 5.883 2.64 6.09 6.09 0 0 0 5.753-1.648l1.166-1.167-.008.022.003-.003a.97.97 0 0 0-.003-1.37z"/></g></g></svg>